# xmcd
#
# Track frame offsets:
#	150
#	14963
#	29213
#	48931
#	66142
#	87778
#	105028
#	118228
#	130678
#	152128
#	163078
#	175378
#	188728
#	203278
#	219178
#	237928
#	252778
#	268167
#
# Disc length: 3741 seconds
#
# Revision: 1
# Processed by: cddbd v1.5.2PL0 Copyright (c) Steve Scherf et al.
# Submitted via: audiograbber 1.83.01
#
DISCID=f50e9b12
DTITLE=Reality Blues Band - 29 wasted years
DYEAR=1900
DGENRE=
TTITLE0=Let the good times roll
TTITLE1=When you got a good friend
TTITLE2=Someday after a while
TTITLE3=Woke up this morning
TTITLE4=Help the poor
TTITLE5=Damn right, I've got the blues
TTITLE6=Albatross
TTITLE7=My Babe
TTITLE8=Need your love so bad
TTITLE9=Sit down baby
TTITLE10=Take it easy baby
TTITLE11=Easy
TTITLE12=Good man gone bad
TTITLE13=Blues before sunrise
TTITLE14=Help me through the day
TTITLE15=The stumble
TTITLE16=No. 9 train
TTITLE17=My baby's a good 'un
EXTD=
EXTT0=
EXTT1=
EXTT2=
EXTT3=
EXTT4=
EXTT5=
EXTT6=
EXTT7=
EXTT8=
EXTT9=
EXTT10=
EXTT11=
EXTT12=
EXTT13=
EXTT14=
EXTT15=
EXTT16=
EXTT17=
PLAYORDER=
